<svg width="72" height="72" viewBox="0 0 72 72" fill="none" xmlns="http://www.w3.org/2000/svg">
<path d="M0 36C0 16.1178 16.1178 0 36 0C55.8823 0 72 16.1178 72 36C72 55.8823 55.8823 72 36 72C16.1178 72 0 55.8823 0 36Z" fill="#E74040"/>
<g clip-path="url(#clip0_2636_381)">
<g clip-path="url(#clip1_2636_381)">
<g clip-path="url(#clip2_2636_381)">
<path d="M25.6129 47.5456H47.4103C47.477 47.5456 47.5417 47.5361 47.6038 47.5213C47.6088 47.5213 47.6129 47.5221 47.6178 47.5221C48.0832 47.5221 48.4612 47.1445 48.4612 46.6788V22.8433C48.4613 22.3778 48.0832 22 47.6178 22H47.412H26.9617H25.6141C23.3694 22 21.5435 23.8263 21.5435 26.0704C21.5435 26.1005 21.5494 26.129 21.5523 26.1581C21.5494 28.2311 21.5237 47.2792 21.5494 49.7833C21.5478 49.8322 21.5418 49.88 21.5418 49.9295C21.5418 52.0873 23.2314 53.8538 25.3566 53.9873C25.3993 53.9939 25.4411 54.0001 25.4853 54.0001H47.6178C48.0831 54.0001 48.4611 53.6225 48.4611 53.1567V49.9823C48.4611 49.5169 48.083 49.139 47.6178 49.139C47.1525 49.139 46.7744 49.517 46.7744 49.9823V52.3135H25.6129C24.3313 52.3135 23.2852 51.296 23.2338 50.0272C23.235 50.0045 23.2391 49.9831 23.2387 49.9601C23.2379 49.923 23.2366 49.8654 23.2358 49.7888C23.3095 48.54 24.346 47.5456 25.6129 47.5456ZM26.1879 26.0704C26.1879 25.6049 26.5657 25.227 27.0313 25.227C27.4968 25.227 27.8746 25.6049 27.8746 26.0704V43.2008C27.8746 43.6661 27.4968 44.0441 27.0313 44.0441C26.5657 44.0441 26.1879 43.666 26.1879 43.2008V26.0704Z" fill="white"/>
</g>
</g>
</g>
<defs>
<clipPath id="clip0_2636_381">
<rect width="32" height="32" fill="white" transform="translate(19 22)"/>
</clipPath>
<clipPath id="clip1_2636_381">
<rect width="32" height="32" fill="white" transform="translate(19 22)"/>
</clipPath>
<clipPath id="clip2_2636_381">
<rect width="26.9231" height="32.0001" fill="white" transform="translate(21.5381 22)"/>
</clipPath>
</defs>
</svg>
