<svg width="149" height="19" viewBox="0 0 149 19" fill="none" xmlns="http://www.w3.org/2000/svg">
<path d="M10.056 12.048V18H6.168V12L-0.336 1.2H3.792L8.28 8.664L12.768 1.2H16.584L10.056 12.048ZM22.7611 18.192C21.4011 18.192 20.1771 17.912 19.0891 17.352C18.0171 16.776 17.1771 15.984 16.5691 14.976C15.9611 13.968 15.6571 12.824 15.6571 11.544C15.6571 10.264 15.9611 9.12 16.5691 8.112C17.1771 7.104 18.0171 6.32 19.0891 5.76C20.1771 5.184 21.4011 4.896 22.7611 4.896C24.1211 4.896 25.3371 5.184 26.4091 5.76C27.4811 6.32 28.3211 7.104 28.9291 8.112C29.5371 9.12 29.8411 10.264 29.8411 11.544C29.8411 12.824 29.5371 13.968 28.9291 14.976C28.3211 15.984 27.4811 16.776 26.4091 17.352C25.3371 17.912 24.1211 18.192 22.7611 18.192ZM22.7611 15.12C23.7211 15.12 24.5051 14.8 25.1131 14.16C25.7371 13.504 26.0491 12.632 26.0491 11.544C26.0491 10.456 25.7371 9.592 25.1131 8.952C24.5051 8.296 23.7211 7.968 22.7611 7.968C21.8011 7.968 21.0091 8.296 20.3851 8.952C19.7611 9.592 19.4491 10.456 19.4491 11.544C19.4491 12.632 19.7611 13.504 20.3851 14.16C21.0091 14.8 21.8011 15.12 22.7611 15.12ZM45.4516 5.088V18H41.8996V16.464C41.4036 17.024 40.8116 17.456 40.1236 17.76C39.4356 18.048 38.6916 18.192 37.8916 18.192C36.1956 18.192 34.8516 17.704 33.8596 16.728C32.8676 15.752 32.3716 14.304 32.3716 12.384V5.088H36.1156V11.832C36.1156 13.912 36.9876 14.952 38.7316 14.952C39.6276 14.952 40.3476 14.664 40.8916 14.088C41.4356 13.496 41.7076 12.624 41.7076 11.472V5.088H45.4516ZM52.5962 6.792C53.0442 6.168 53.6442 5.696 54.3962 5.376C55.1642 5.056 56.0442 4.896 57.0362 4.896V8.352C56.6202 8.32 56.3402 8.304 56.1962 8.304C55.1242 8.304 54.2842 8.608 53.6762 9.216C53.0682 9.808 52.7642 10.704 52.7642 11.904V18H49.0202V5.088H52.5962V6.792ZM72.137 18.288C70.809 18.288 69.521 18.112 68.273 17.76C67.041 17.392 66.049 16.92 65.297 16.344L66.617 13.416C67.337 13.944 68.193 14.368 69.185 14.688C70.177 15.008 71.169 15.168 72.161 15.168C73.265 15.168 74.081 15.008 74.609 14.688C75.137 14.352 75.401 13.912 75.401 13.368C75.401 12.968 75.241 12.64 74.921 12.384C74.617 12.112 74.217 11.896 73.721 11.736C73.241 11.576 72.585 11.4 71.753 11.208C70.473 10.904 69.425 10.6 68.609 10.296C67.793 9.992 67.089 9.504 66.497 8.832C65.921 8.16 65.633 7.264 65.633 6.144C65.633 5.168 65.897 4.288 66.425 3.504C66.953 2.704 67.745 2.072 68.801 1.608C69.873 1.144 71.177 0.912 72.713 0.912C73.785 0.912 74.833 1.04 75.857 1.296C76.881 1.552 77.777 1.92 78.545 2.4L77.345 5.352C75.793 4.472 74.241 4.032 72.689 4.032C71.601 4.032 70.793 4.208 70.265 4.56C69.753 4.912 69.497 5.376 69.497 5.952C69.497 6.528 69.793 6.96 70.385 7.248C70.993 7.52 71.913 7.792 73.145 8.064C74.425 8.368 75.473 8.672 76.289 8.976C77.105 9.28 77.801 9.76 78.377 10.416C78.969 11.072 79.265 11.96 79.265 13.08C79.265 14.04 78.993 14.92 78.449 15.72C77.921 16.504 77.121 17.128 76.049 17.592C74.977 18.056 73.673 18.288 72.137 18.288ZM87.9977 18.192C86.6217 18.192 85.3817 17.912 84.2777 17.352C83.1897 16.776 82.3337 15.984 81.7097 14.976C81.1017 13.968 80.7977 12.824 80.7977 11.544C80.7977 10.264 81.1017 9.12 81.7097 8.112C82.3337 7.104 83.1897 6.32 84.2777 5.76C85.3817 5.184 86.6217 4.896 87.9977 4.896C89.3577 4.896 90.5417 5.184 91.5497 5.76C92.5737 6.32 93.3177 7.128 93.7817 8.184L90.8777 9.744C90.2057 8.56 89.2377 7.968 87.9737 7.968C86.9977 7.968 86.1897 8.288 85.5497 8.928C84.9097 9.568 84.5897 10.44 84.5897 11.544C84.5897 12.648 84.9097 13.52 85.5497 14.16C86.1897 14.8 86.9977 15.12 87.9737 15.12C89.2537 15.12 90.2217 14.528 90.8777 13.344L93.7817 14.928C93.3177 15.952 92.5737 16.752 91.5497 17.328C90.5417 17.904 89.3577 18.192 87.9977 18.192ZM103.792 4.896C105.392 4.896 106.68 5.376 107.656 6.336C108.648 7.296 109.144 8.72 109.144 10.608V18H105.4V11.184C105.4 10.16 105.176 9.4 104.728 8.904C104.28 8.392 103.632 8.136 102.784 8.136C101.84 8.136 101.088 8.432 100.528 9.024C99.9676 9.6 99.6876 10.464 99.6876 11.616V18H95.9436V0.191999H99.6876V6.432C100.184 5.936 100.784 5.56 101.488 5.304C102.192 5.032 102.96 4.896 103.792 4.896ZM118.922 18.192C117.562 18.192 116.338 17.912 115.25 17.352C114.178 16.776 113.338 15.984 112.73 14.976C112.122 13.968 111.818 12.824 111.818 11.544C111.818 10.264 112.122 9.12 112.73 8.112C113.338 7.104 114.178 6.32 115.25 5.76C116.338 5.184 117.562 4.896 118.922 4.896C120.282 4.896 121.498 5.184 122.57 5.76C123.642 6.32 124.482 7.104 125.09 8.112C125.698 9.12 126.002 10.264 126.002 11.544C126.002 12.824 125.698 13.968 125.09 14.976C124.482 15.984 123.642 16.776 122.57 17.352C121.498 17.912 120.282 18.192 118.922 18.192ZM118.922 15.12C119.882 15.12 120.666 14.8 121.274 14.16C121.898 13.504 122.21 12.632 122.21 11.544C122.21 10.456 121.898 9.592 121.274 8.952C120.666 8.296 119.882 7.968 118.922 7.968C117.962 7.968 117.17 8.296 116.546 8.952C115.922 9.592 115.61 10.456 115.61 11.544C115.61 12.632 115.922 13.504 116.546 14.16C117.17 14.8 117.962 15.12 118.922 15.12ZM134.749 18.192C133.389 18.192 132.165 17.912 131.077 17.352C130.005 16.776 129.165 15.984 128.557 14.976C127.949 13.968 127.645 12.824 127.645 11.544C127.645 10.264 127.949 9.12 128.557 8.112C129.165 7.104 130.005 6.32 131.077 5.76C132.165 5.184 133.389 4.896 134.749 4.896C136.109 4.896 137.325 5.184 138.397 5.76C139.469 6.32 140.309 7.104 140.917 8.112C141.525 9.12 141.829 10.264 141.829 11.544C141.829 12.824 141.525 13.968 140.917 14.976C140.309 15.984 139.469 16.776 138.397 17.352C137.325 17.912 136.109 18.192 134.749 18.192ZM134.749 15.12C135.709 15.12 136.493 14.8 137.101 14.16C137.725 13.504 138.037 12.632 138.037 11.544C138.037 10.456 137.725 9.592 137.101 8.952C136.493 8.296 135.709 7.968 134.749 7.968C133.789 7.968 132.997 8.296 132.373 8.952C131.749 9.592 131.437 10.456 131.437 11.544C131.437 12.632 131.749 13.504 132.373 14.16C132.997 14.8 133.789 15.12 134.749 15.12ZM144.431 0.191999H148.175V18H144.431V0.191999Z" fill="#252B42"/>
</svg>
